<svg height="5966" width="720" xmlns="http://www.w3.org/2000/svg">
<rect height="5966" fill="#555" width="720"></rect>
<text fill="#7f7" font-family="Courier New" font-size="12" xml:space="preserve">
<tspan x="10" y="26">└─┬ gcloud@0.37.2 </tspan>
<tspan x="10" y="42">  ├── array-uniq@1.0.3 </tspan>
<tspan x="10" y="58">  ├── arrify@1.0.1 </tspan>
<tspan x="10" y="74">  ├── async@1.5.2 </tspan>
<tspan x="10" y="90">  ├─┬ concat-stream@1.6.0 </tspan>
<tspan x="10" y="106">  │ ├── inherits@2.0.3 </tspan>
<tspan x="10" y="122">  │ ├─┬ readable-stream@2.2.6 </tspan>
<tspan x="10" y="138">  │ │ ├── buffer-shims@1.0.0 </tspan>
<tspan x="10" y="154">  │ │ ├── core-util-is@1.0.2 </tspan>
<tspan x="10" y="170">  │ │ ├── isarray@1.0.0 </tspan>
<tspan x="10" y="186">  │ │ ├── process-nextick-args@1.0.7 </tspan>
<tspan x="10" y="202">  │ │ ├── string_decoder@0.10.31 </tspan>
<tspan x="10" y="218">  │ │ └── util-deprecate@1.0.2 </tspan>
<tspan x="10" y="234">  │ └── typedarray@0.0.6 </tspan>
<tspan x="10" y="250">  ├─┬ create-error-class@2.0.1 </tspan>
<tspan x="10" y="266">  │ └── capture-stack-trace@1.0.0 </tspan>
<tspan x="10" y="282">  ├── dns-zonefile@0.1.18 </tspan>
<tspan x="10" y="298">  ├─┬ dot-prop@2.4.0 </tspan>
<tspan x="10" y="314">  │ └── is-obj@1.0.1 </tspan>
<tspan x="10" y="330">  ├─┬ duplexify@3.5.0 </tspan>
<tspan x="10" y="346">  │ ├─┬ end-of-stream@1.0.0 </tspan>
<tspan x="10" y="362">  │ │ └── once@1.3.3 </tspan>
<tspan x="10" y="378">  │ └── stream-shift@1.0.0 </tspan>
<tspan x="10" y="394">  ├── ent@2.2.0 </tspan>
<tspan x="10" y="410">  ├── extend@3.0.0 </tspan>
<tspan x="10" y="426">  ├─┬ gce-images@0.2.3 </tspan>
<tspan x="10" y="442">  │ ├── google-auto-auth@0.1.1 </tspan>
<tspan x="10" y="458">  │ ├─┬ got@4.2.0 </tspan>
<tspan x="10" y="474">  │ │ ├── is-plain-obj@1.1.0 </tspan>
<tspan x="10" y="490">  │ │ ├── is-redirect@1.0.0 </tspan>
<tspan x="10" y="506">  │ │ ├── is-stream@1.1.0 </tspan>
<tspan x="10" y="522">  │ │ ├── lowercase-keys@1.0.0 </tspan>
<tspan x="10" y="538">  │ │ ├── node-status-codes@1.0.0 </tspan>
<tspan x="10" y="554">  │ │ ├─┬ parse-json@2.2.0 </tspan>
<tspan x="10" y="570">  │ │ │ └─┬ error-ex@1.3.1 </tspan>
<tspan x="10" y="586">  │ │ │   └── is-arrayish@0.2.1 </tspan>
<tspan x="10" y="602">  │ │ ├─┬ pinkie-promise@1.0.0 </tspan>
<tspan x="10" y="618">  │ │ │ └── pinkie@1.0.0 </tspan>
<tspan x="10" y="634">  │ │ ├── prepend-http@1.0.4 </tspan>
<tspan x="10" y="650">  │ │ ├─┬ read-all-stream@3.1.0 </tspan>
<tspan x="10" y="666">  │ │ │ └─┬ pinkie-promise@2.0.1 </tspan>
<tspan x="10" y="682">  │ │ │   └── pinkie@2.0.4 </tspan>
<tspan x="10" y="698">  │ │ ├── timed-out@2.0.0 </tspan>
<tspan x="10" y="714">  │ │ └── unzip-response@1.0.2 </tspan>
<tspan x="10" y="730">  │ └── object-assign@3.0.0 </tspan>
<tspan x="10" y="746">  ├─┬ gcs-resumable-upload@0.7.4 </tspan>
<tspan x="10" y="762">  │ ├── buffer-equal@0.0.1 </tspan>
<tspan x="10" y="778">  │ └─┬ configstore@1.4.0 </tspan>
<tspan x="10" y="794">  │   ├── graceful-fs@4.1.11 </tspan>
<tspan x="10" y="810">  │   ├─┬ mkdirp@0.5.1 </tspan>
<tspan x="10" y="826">  │   │ └── minimist@0.0.8 </tspan>
<tspan x="10" y="842">  │   ├── object-assign@4.1.1 </tspan>
<tspan x="10" y="858">  │   ├── os-tmpdir@1.0.2 </tspan>
<tspan x="10" y="874">  │   ├─┬ osenv@0.1.4 </tspan>
<tspan x="10" y="890">  │   │ └── os-homedir@1.0.2 </tspan>
<tspan x="10" y="906">  │   ├── uuid@2.0.3 </tspan>
<tspan x="10" y="922">  │   ├─┬ write-file-atomic@1.3.1 </tspan>
<tspan x="10" y="938">  │   │ ├── imurmurhash@0.1.4 </tspan>
<tspan x="10" y="954">  │   │ └── slide@1.1.6 </tspan>
<tspan x="10" y="970">  │   └── xdg-basedir@2.0.0 </tspan>
<tspan x="10" y="986">  ├─┬ google-auto-auth@0.2.4 </tspan>
<tspan x="10" y="1002">  │ └─┬ google-auth-library@0.9.10 </tspan>
<tspan x="10" y="1018">  │   ├── async@1.4.2 </tspan>
<tspan x="10" y="1034">  │   ├─┬ gtoken@1.2.2 </tspan>
<tspan x="10" y="1050">  │   │ ├─┬ google-p12-pem@0.1.1 </tspan>
<tspan x="10" y="1066">  │   │ │ └── node-forge@0.6.49 </tspan>
<tspan x="10" y="1082">  │   │ └── mime@1.3.4 </tspan>
<tspan x="10" y="1098">  │   ├─┬ jws@3.0.0 </tspan>
<tspan x="10" y="1114">  │   │ ├─┬ base64url@1.0.6 </tspan>
<tspan x="10" y="1130">  │   │ │ ├─┬ concat-stream@1.4.10 </tspan>
<tspan x="10" y="1146">  │   │ │ │ └─┬ readable-stream@1.1.14 </tspan>
<tspan x="10" y="1162">  │   │ │ │   └── isarray@0.0.1 </tspan>
<tspan x="10" y="1178">  │   │ │ └─┬ meow@2.0.0 </tspan>
<tspan x="10" y="1194">  │   │ │   ├─┬ camelcase-keys@1.0.0 </tspan>
<tspan x="10" y="1210">  │   │ │   │ ├── camelcase@1.2.1 </tspan>
<tspan x="10" y="1226">  │   │ │   │ └── map-obj@1.0.1 </tspan>
<tspan x="10" y="1242">  │   │ │   ├─┬ indent-string@1.2.2 </tspan>
<tspan x="10" y="1258">  │   │ │   │ ├── get-stdin@4.0.1 </tspan>
<tspan x="10" y="1274">  │   │ │   │ └─┬ repeating@1.1.3 </tspan>
<tspan x="10" y="1290">  │   │ │   │   └── is-finite@1.0.2 </tspan>
<tspan x="10" y="1306">  │   │ │   ├── minimist@1.2.0 </tspan>
<tspan x="10" y="1322">  │   │ │   └── object-assign@1.0.0 </tspan>
<tspan x="10" y="1338">  │   │ └─┬ jwa@1.0.2 </tspan>
<tspan x="10" y="1354">  │   │   ├── base64url@0.0.6 </tspan>
<tspan x="10" y="1370">  │   │   ├── buffer-equal-constant-time@1.0.1 </tspan>
<tspan x="10" y="1386">  │   │   └─┬ ecdsa-sig-formatter@1.0.9 </tspan>
<tspan x="10" y="1402">  │   │     └── base64url@2.0.0 </tspan>
<tspan x="10" y="1418">  │   ├── lodash.noop@3.0.1 </tspan>
<tspan x="10" y="1434">  │   ├─┬ request@2.74.0 </tspan>
<tspan x="10" y="1450">  │   │ ├─┬ bl@1.1.2 </tspan>
<tspan x="10" y="1466">  │   │ │ └── readable-stream@2.0.6 </tspan>
<tspan x="10" y="1482">  │   │ ├── caseless@0.11.0 </tspan>
<tspan x="10" y="1498">  │   │ ├─┬ form-data@1.0.1 </tspan>
<tspan x="10" y="1514">  │   │ │ └─┬ async@2.3.0 </tspan>
<tspan x="10" y="1530">  │   │ │   └── lodash@4.17.4 </tspan>
<tspan x="10" y="1546">  │   │ ├── har-validator@2.0.6 </tspan>
<tspan x="10" y="1562">  │   │ ├── node-uuid@1.4.8 </tspan>
<tspan x="10" y="1578">  │   │ ├── qs@6.2.3 </tspan>
<tspan x="10" y="1594">  │   │ └── tunnel-agent@0.4.3 </tspan>
<tspan x="10" y="1610">  │   └── string-template@0.2.1 </tspan>
<tspan x="10" y="1626">  ├── google-proto-files@0.2.4 </tspan>
<tspan x="10" y="1642">  ├─┬ grpc@0.14.1 </tspan>
<tspan x="10" y="1658">  │ ├── arguejs@0.2.3 </tspan>
<tspan x="10" y="1674">  │ ├── lodash@3.10.1 </tspan>
<tspan x="10" y="1690">  │ ├── nan@2.5.1 </tspan>
<tspan x="10" y="1706">  │ ├─┬ node-pre-gyp@0.6.28 </tspan>
<tspan x="10" y="1722">  │ │ ├─┬ mkdirp@0.5.1 </tspan>
<tspan x="10" y="1738">  │ │ │ └── minimist@0.0.8 </tspan>
<tspan x="10" y="1754">  │ │ ├─┬ nopt@3.0.6 </tspan>
<tspan x="10" y="1770">  │ │ │ └── abbrev@1.0.7 </tspan>
<tspan x="10" y="1786">  │ │ ├─┬ npmlog@2.0.3 </tspan>
<tspan x="10" y="1802">  │ │ │ ├── ansi@0.3.1 </tspan>
<tspan x="10" y="1818">  │ │ │ ├─┬ are-we-there-yet@1.1.2 </tspan>
<tspan x="10" y="1834">  │ │ │ │ ├── delegates@1.0.0 </tspan>
<tspan x="10" y="1850">  │ │ │ │ └─┬ readable-stream@2.1.2 </tspan>
<tspan x="10" y="1866">  │ │ │ │   ├── core-util-is@1.0.2 </tspan>
<tspan x="10" y="1882">  │ │ │ │   ├── inherits@2.0.1 </tspan>
<tspan x="10" y="1898">  │ │ │ │   ├── isarray@1.0.0 </tspan>
<tspan x="10" y="1914">  │ │ │ │   ├── process-nextick-args@1.0.7 </tspan>
<tspan x="10" y="1930">  │ │ │ │   ├── string_decoder@0.10.31 </tspan>
<tspan x="10" y="1946">  │ │ │ │   └── util-deprecate@1.0.2 </tspan>
<tspan x="10" y="1962">  │ │ │ └─┬ gauge@1.2.7 </tspan>
<tspan x="10" y="1978">  │ │ │   ├── has-unicode@2.0.0 </tspan>
<tspan x="10" y="1994">  │ │ │   ├─┬ lodash.pad@4.3.0 </tspan>
<tspan x="10" y="2010">  │ │ │   │ ├── lodash._baseslice@4.0.0 </tspan>
<tspan x="10" y="2026">  │ │ │   │ └── lodash.tostring@4.1.2 </tspan>
<tspan x="10" y="2042">  │ │ │   ├─┬ lodash.padend@4.4.0 </tspan>
<tspan x="10" y="2058">  │ │ │   │ ├── lodash._baseslice@4.0.0 </tspan>
<tspan x="10" y="2074">  │ │ │   │ └── lodash.tostring@4.1.2 </tspan>
<tspan x="10" y="2090">  │ │ │   └─┬ lodash.padstart@4.4.0 </tspan>
<tspan x="10" y="2106">  │ │ │     ├── lodash._baseslice@4.0.0 </tspan>
<tspan x="10" y="2122">  │ │ │     └── lodash.tostring@4.1.2 </tspan>
<tspan x="10" y="2138">  │ │ ├─┬ rc@1.1.6 </tspan>
<tspan x="10" y="2154">  │ │ │ ├── deep-extend@0.4.1 </tspan>
<tspan x="10" y="2170">  │ │ │ ├── ini@1.3.4 </tspan>
<tspan x="10" y="2186">  │ │ │ ├── minimist@1.2.0 </tspan>
<tspan x="10" y="2202">  │ │ │ └── strip-json-comments@1.0.4 </tspan>
<tspan x="10" y="2218">  │ │ ├─┬ request@2.72.0 </tspan>
<tspan x="10" y="2234">  │ │ │ ├── aws-sign2@0.6.0 </tspan>
<tspan x="10" y="2250">  │ │ │ ├── aws4@1.4.1 </tspan>
<tspan x="10" y="2266">  │ │ │ ├─┬ bl@1.1.2 </tspan>
<tspan x="10" y="2282">  │ │ │ │ └─┬ readable-stream@2.0.6 </tspan>
<tspan x="10" y="2298">  │ │ │ │   ├── core-util-is@1.0.2 </tspan>
<tspan x="10" y="2314">  │ │ │ │   ├── inherits@2.0.1 </tspan>
<tspan x="10" y="2330">  │ │ │ │   ├── isarray@1.0.0 </tspan>
<tspan x="10" y="2346">  │ │ │ │   ├── process-nextick-args@1.0.7 </tspan>
<tspan x="10" y="2362">  │ │ │ │   ├── string_decoder@0.10.31 </tspan>
<tspan x="10" y="2378">  │ │ │ │   └── util-deprecate@1.0.2 </tspan>
<tspan x="10" y="2394">  │ │ │ ├── caseless@0.11.0 </tspan>
<tspan x="10" y="2410">  │ │ │ ├─┬ combined-stream@1.0.5 </tspan>
<tspan x="10" y="2426">  │ │ │ │ └── delayed-stream@1.0.0 </tspan>
<tspan x="10" y="2442">  │ │ │ ├── extend@3.0.0 </tspan>
<tspan x="10" y="2458">  │ │ │ ├── forever-agent@0.6.1 </tspan>
<tspan x="10" y="2474">  │ │ │ ├─┬ form-data@1.0.0-rc4 </tspan>
<tspan x="10" y="2490">  │ │ │ │ └── async@1.5.2 </tspan>
<tspan x="10" y="2506">  │ │ │ ├─┬ har-validator@2.0.6 </tspan>
<tspan x="10" y="2522">  │ │ │ │ ├─┬ chalk@1.1.3 </tspan>
<tspan x="10" y="2538">  │ │ │ │ │ ├── ansi-styles@2.2.1 </tspan>
<tspan x="10" y="2554">  │ │ │ │ │ ├── escape-string-regexp@1.0.5 </tspan>
<tspan x="10" y="2570">  │ │ │ │ │ ├─┬ has-ansi@2.0.0 </tspan>
<tspan x="10" y="2586">  │ │ │ │ │ │ └── ansi-regex@2.0.0 </tspan>
<tspan x="10" y="2602">  │ │ │ │ │ ├─┬ strip-ansi@3.0.1 </tspan>
<tspan x="10" y="2618">  │ │ │ │ │ │ └── ansi-regex@2.0.0 </tspan>
<tspan x="10" y="2634">  │ │ │ │ │ └── supports-color@2.0.0 </tspan>
<tspan x="10" y="2650">  │ │ │ │ ├─┬ commander@2.9.0 </tspan>
<tspan x="10" y="2666">  │ │ │ │ │ └── graceful-readlink@1.0.1 </tspan>
<tspan x="10" y="2682">  │ │ │ │ ├─┬ is-my-json-valid@2.13.1 </tspan>
<tspan x="10" y="2698">  │ │ │ │ │ ├── generate-function@2.0.0 </tspan>
<tspan x="10" y="2714">  │ │ │ │ │ ├─┬ generate-object-property@1.2.0 </tspan>
<tspan x="10" y="2730">  │ │ │ │ │ │ └── is-property@1.0.2 </tspan>
<tspan x="10" y="2746">  │ │ │ │ │ ├── jsonpointer@2.0.0 </tspan>
<tspan x="10" y="2762">  │ │ │ │ │ └── xtend@4.0.1 </tspan>
<tspan x="10" y="2778">  │ │ │ │ └─┬ pinkie-promise@2.0.1 </tspan>
<tspan x="10" y="2794">  │ │ │ │   └── pinkie@2.0.4 </tspan>
<tspan x="10" y="2810">  │ │ │ ├─┬ hawk@3.1.3 </tspan>
<tspan x="10" y="2826">  │ │ │ │ ├── boom@2.10.1 </tspan>
<tspan x="10" y="2842">  │ │ │ │ ├── cryptiles@2.0.5 </tspan>
<tspan x="10" y="2858">  │ │ │ │ ├── hoek@2.16.3 </tspan>
<tspan x="10" y="2874">  │ │ │ │ └── sntp@1.0.9 </tspan>
<tspan x="10" y="2890">  │ │ │ ├─┬ http-signature@1.1.1 </tspan>
<tspan x="10" y="2906">  │ │ │ │ ├── assert-plus@0.2.0 </tspan>
<tspan x="10" y="2922">  │ │ │ │ ├─┬ jsprim@1.2.2 </tspan>
<tspan x="10" y="2938">  │ │ │ │ │ ├── extsprintf@1.0.2 </tspan>
<tspan x="10" y="2954">  │ │ │ │ │ ├── json-schema@0.2.2 </tspan>
<tspan x="10" y="2970">  │ │ │ │ │ └── verror@1.3.6 </tspan>
<tspan x="10" y="2986">  │ │ │ │ └─┬ sshpk@1.8.3 </tspan>
<tspan x="10" y="3002">  │ │ │ │   ├── asn1@0.2.3 </tspan>
<tspan x="10" y="3018">  │ │ │ │   ├── assert-plus@1.0.0 </tspan>
<tspan x="10" y="3034">  │ │ │ │   ├── dashdash@1.13.1 </tspan>
<tspan x="10" y="3050">  │ │ │ │   ├── ecc-jsbn@0.1.1 </tspan>
<tspan x="10" y="3066">  │ │ │ │   ├── getpass@0.1.6 </tspan>
<tspan x="10" y="3082">  │ │ │ │   ├── jodid25519@1.0.2 </tspan>
<tspan x="10" y="3098">  │ │ │ │   ├── jsbn@0.1.0 </tspan>
<tspan x="10" y="3114">  │ │ │ │   └── tweetnacl@0.13.3 </tspan>
<tspan x="10" y="3130">  │ │ │ ├── is-typedarray@1.0.0 </tspan>
<tspan x="10" y="3146">  │ │ │ ├── isstream@0.1.2 </tspan>
<tspan x="10" y="3162">  │ │ │ ├── json-stringify-safe@5.0.1 </tspan>
<tspan x="10" y="3178">  │ │ │ ├─┬ mime-types@2.1.11 </tspan>
<tspan x="10" y="3194">  │ │ │ │ └── mime-db@1.23.0 </tspan>
<tspan x="10" y="3210">  │ │ │ ├── node-uuid@1.4.7 </tspan>
<tspan x="10" y="3226">  │ │ │ ├── oauth-sign@0.8.2 </tspan>
<tspan x="10" y="3242">  │ │ │ ├── qs@6.1.0 </tspan>
<tspan x="10" y="3258">  │ │ │ ├── stringstream@0.0.5 </tspan>
<tspan x="10" y="3274">  │ │ │ ├── tough-cookie@2.2.2 </tspan>
<tspan x="10" y="3290">  │ │ │ └── tunnel-agent@0.4.3 </tspan>
<tspan x="10" y="3306">  │ │ ├─┬ rimraf@2.5.2 </tspan>
<tspan x="10" y="3322">  │ │ │ └─┬ glob@7.0.3 </tspan>
<tspan x="10" y="3338">  │ │ │   ├─┬ inflight@1.0.4 </tspan>
<tspan x="10" y="3354">  │ │ │   │ └── wrappy@1.0.1 </tspan>
<tspan x="10" y="3370">  │ │ │   ├── inherits@2.0.1 </tspan>
<tspan x="10" y="3386">  │ │ │   ├─┬ minimatch@3.0.0 </tspan>
<tspan x="10" y="3402">  │ │ │   │ └─┬ brace-expansion@1.1.4 </tspan>
<tspan x="10" y="3418">  │ │ │   │   ├── balanced-match@0.4.1 </tspan>
<tspan x="10" y="3434">  │ │ │   │   └── concat-map@0.0.1 </tspan>
<tspan x="10" y="3450">  │ │ │   ├─┬ once@1.3.3 </tspan>
<tspan x="10" y="3466">  │ │ │   │ └── wrappy@1.0.1 </tspan>
<tspan x="10" y="3482">  │ │ │   └── path-is-absolute@1.0.0 </tspan>
<tspan x="10" y="3498">  │ │ ├── semver@5.1.0 </tspan>
<tspan x="10" y="3514">  │ │ ├─┬ tar@2.2.1 </tspan>
<tspan x="10" y="3530">  │ │ │ ├── block-stream@0.0.9 </tspan>
<tspan x="10" y="3546">  │ │ │ ├─┬ fstream@1.0.8 </tspan>
<tspan x="10" y="3562">  │ │ │ │ └── graceful-fs@4.1.4 </tspan>
<tspan x="10" y="3578">  │ │ │ └── inherits@2.0.1 </tspan>
<tspan x="10" y="3594">  │ │ └─┬ tar-pack@3.1.3 </tspan>
<tspan x="10" y="3610">  │ │   ├─┬ debug@2.2.0 </tspan>
<tspan x="10" y="3626">  │ │   │ └── ms@0.7.1 </tspan>
<tspan x="10" y="3642">  │ │   ├─┬ fstream@1.0.8 </tspan>
<tspan x="10" y="3658">  │ │   │ ├── graceful-fs@4.1.4 </tspan>
<tspan x="10" y="3674">  │ │   │ └── inherits@2.0.1 </tspan>
<tspan x="10" y="3690">  │ │   ├─┬ fstream-ignore@1.0.4 </tspan>
<tspan x="10" y="3706">  │ │   │ ├── inherits@2.0.1 </tspan>
<tspan x="10" y="3722">  │ │   │ └─┬ minimatch@3.0.0 </tspan>
<tspan x="10" y="3738">  │ │   │   └─┬ brace-expansion@1.1.4 </tspan>
<tspan x="10" y="3754">  │ │   │     ├── balanced-match@0.4.1 </tspan>
<tspan x="10" y="3770">  │ │   │     └── concat-map@0.0.1 </tspan>
<tspan x="10" y="3786">  │ │   ├─┬ once@1.3.3 </tspan>
<tspan x="10" y="3802">  │ │   │ └── wrappy@1.0.1 </tspan>
<tspan x="10" y="3818">  │ │   ├─┬ readable-stream@2.0.6 </tspan>
<tspan x="10" y="3834">  │ │   │ ├── core-util-is@1.0.2 </tspan>
<tspan x="10" y="3850">  │ │   │ ├── inherits@2.0.1 </tspan>
<tspan x="10" y="3866">  │ │   │ ├── isarray@1.0.0 </tspan>
<tspan x="10" y="3882">  │ │   │ ├── process-nextick-args@1.0.7 </tspan>
<tspan x="10" y="3898">  │ │   │ ├── string_decoder@0.10.31 </tspan>
<tspan x="10" y="3914">  │ │   │ └── util-deprecate@1.0.2 </tspan>
<tspan x="10" y="3930">  │ │   └── uid-number@0.0.6 </tspan>
<tspan x="10" y="3946">  │ └─┬ protobufjs@4.1.3 </tspan>
<tspan x="10" y="3962">  │   ├─┬ ascli@1.0.1 </tspan>
<tspan x="10" y="3978">  │   │ ├── colour@0.7.1 </tspan>
<tspan x="10" y="3994">  │   │ └── optjs@3.2.2 </tspan>
<tspan x="10" y="4010">  │   ├─┬ bytebuffer@4.1.0 </tspan>
<tspan x="10" y="4026">  │   │ ├── bufferview@1.0.1 </tspan>
<tspan x="10" y="4042">  │   │ └── long@2.4.0 </tspan>
<tspan x="10" y="4058">  │   ├─┬ glob@5.0.15 </tspan>
<tspan x="10" y="4074">  │   │ ├── inflight@1.0.6 </tspan>
<tspan x="10" y="4090">  │   │ ├─┬ minimatch@3.0.3 </tspan>
<tspan x="10" y="4106">  │   │ │ └─┬ brace-expansion@1.1.6 </tspan>
<tspan x="10" y="4122">  │   │ │   ├── balanced-match@0.4.2 </tspan>
<tspan x="10" y="4138">  │   │ │   └── concat-map@0.0.1 </tspan>
<tspan x="10" y="4154">  │   │ └── path-is-absolute@1.0.1 </tspan>
<tspan x="10" y="4170">  │   └─┬ yargs@3.32.0 </tspan>
<tspan x="10" y="4186">  │     ├── camelcase@2.1.1 </tspan>
<tspan x="10" y="4202">  │     ├─┬ cliui@3.2.0 </tspan>
<tspan x="10" y="4218">  │     │ ├─┬ strip-ansi@3.0.1 </tspan>
<tspan x="10" y="4234">  │     │ │ └── ansi-regex@2.1.1 </tspan>
<tspan x="10" y="4250">  │     │ └── wrap-ansi@2.1.0 </tspan>
<tspan x="10" y="4266">  │     ├── decamelize@1.2.0 </tspan>
<tspan x="10" y="4282">  │     ├─┬ os-locale@1.4.0 </tspan>
<tspan x="10" y="4298">  │     │ └─┬ lcid@1.0.0 </tspan>
<tspan x="10" y="4314">  │     │   └── invert-kv@1.0.0 </tspan>
<tspan x="10" y="4330">  │     ├─┬ string-width@1.0.2 </tspan>
<tspan x="10" y="4346">  │     │ ├── code-point-at@1.1.0 </tspan>
<tspan x="10" y="4362">  │     │ └─┬ is-fullwidth-code-point@1.0.0 </tspan>
<tspan x="10" y="4378">  │     │   └── number-is-nan@1.0.1 </tspan>
<tspan x="10" y="4394">  │     ├── window-size@0.1.4 </tspan>
<tspan x="10" y="4410">  │     └── y18n@3.2.1 </tspan>
<tspan x="10" y="4426">  ├── hash-stream-validation@0.2.1 </tspan>
<tspan x="10" y="4442">  ├── is@3.2.1 </tspan>
<tspan x="10" y="4458">  ├─┬ JSONStream@1.3.1 </tspan>
<tspan x="10" y="4474">  │ ├── jsonparse@1.3.0 </tspan>
<tspan x="10" y="4490">  │ └── through@2.3.8 </tspan>
<tspan x="10" y="4506">  ├── lodash.flatten@4.4.0 </tspan>
<tspan x="10" y="4522">  ├── methmeth@1.1.0 </tspan>
<tspan x="10" y="4538">  ├─┬ mime-types@2.1.15 </tspan>
<tspan x="10" y="4554">  │ └── mime-db@1.27.0 </tspan>
<tspan x="10" y="4570">  ├── modelo@4.2.0 </tspan>
<tspan x="10" y="4586">  ├── node-int64@0.4.0 </tspan>
<tspan x="10" y="4602">  ├─┬ once@1.4.0 </tspan>
<tspan x="10" y="4618">  │ └── wrappy@1.0.2 </tspan>
<tspan x="10" y="4634">  ├── prop-assign@1.0.0 </tspan>
<tspan x="10" y="4650">  ├── propprop@0.3.1 </tspan>
<tspan x="10" y="4666">  ├─┬ pumpify@1.3.5 </tspan>
<tspan x="10" y="4682">  │ └─┬ pump@1.0.2 </tspan>
<tspan x="10" y="4698">  │   └── end-of-stream@1.4.0 </tspan>
<tspan x="10" y="4714">  ├─┬ request@2.81.0 </tspan>
<tspan x="10" y="4730">  │ ├── aws-sign2@0.6.0 </tspan>
<tspan x="10" y="4746">  │ ├── aws4@1.6.0 </tspan>
<tspan x="10" y="4762">  │ ├── caseless@0.12.0 </tspan>
<tspan x="10" y="4778">  │ ├─┬ combined-stream@1.0.5 </tspan>
<tspan x="10" y="4794">  │ │ └── delayed-stream@1.0.0 </tspan>
<tspan x="10" y="4810">  │ ├── forever-agent@0.6.1 </tspan>
<tspan x="10" y="4826">  │ ├─┬ form-data@2.1.2 </tspan>
<tspan x="10" y="4842">  │ │ └── asynckit@0.4.0 </tspan>
<tspan x="10" y="4858">  │ ├─┬ har-validator@4.2.1 </tspan>
<tspan x="10" y="4874">  │ │ ├─┬ ajv@4.11.5 </tspan>
<tspan x="10" y="4890">  │ │ │ ├── co@4.6.0 </tspan>
<tspan x="10" y="4906">  │ │ │ └─┬ json-stable-stringify@1.0.1 </tspan>
<tspan x="10" y="4922">  │ │ │   └── jsonify@0.0.0 </tspan>
<tspan x="10" y="4938">  │ │ └── har-schema@1.0.5 </tspan>
<tspan x="10" y="4954">  │ ├─┬ hawk@3.1.3 </tspan>
<tspan x="10" y="4970">  │ │ ├── boom@2.10.1 </tspan>
<tspan x="10" y="4986">  │ │ ├── cryptiles@2.0.5 </tspan>
<tspan x="10" y="5002">  │ │ ├── hoek@2.16.3 </tspan>
<tspan x="10" y="5018">  │ │ └── sntp@1.0.9 </tspan>
<tspan x="10" y="5034">  │ ├─┬ http-signature@1.1.1 </tspan>
<tspan x="10" y="5050">  │ │ ├── assert-plus@0.2.0 </tspan>
<tspan x="10" y="5066">  │ │ ├─┬ jsprim@1.4.0 </tspan>
<tspan x="10" y="5082">  │ │ │ ├── assert-plus@1.0.0 </tspan>
<tspan x="10" y="5098">  │ │ │ ├── extsprintf@1.0.2 </tspan>
<tspan x="10" y="5114">  │ │ │ ├── json-schema@0.2.3 </tspan>
<tspan x="10" y="5130">  │ │ │ └── verror@1.3.6 </tspan>
<tspan x="10" y="5146">  │ │ └─┬ sshpk@1.11.0 </tspan>
<tspan x="10" y="5162">  │ │   ├── asn1@0.2.3 </tspan>
<tspan x="10" y="5178">  │ │   ├── assert-plus@1.0.0 </tspan>
<tspan x="10" y="5194">  │ │   ├── bcrypt-pbkdf@1.0.1 </tspan>
<tspan x="10" y="5210">  │ │   ├─┬ dashdash@1.14.1 </tspan>
<tspan x="10" y="5226">  │ │   │ └── assert-plus@1.0.0 </tspan>
<tspan x="10" y="5242">  │ │   ├── ecc-jsbn@0.1.1 </tspan>
<tspan x="10" y="5258">  │ │   ├─┬ getpass@0.1.6 </tspan>
<tspan x="10" y="5274">  │ │   │ └── assert-plus@1.0.0 </tspan>
<tspan x="10" y="5290">  │ │   ├── jodid25519@1.0.2 </tspan>
<tspan x="10" y="5306">  │ │   ├── jsbn@0.1.1 </tspan>
<tspan x="10" y="5322">  │ │   └── tweetnacl@0.14.5 </tspan>
<tspan x="10" y="5338">  │ ├── is-typedarray@1.0.0 </tspan>
<tspan x="10" y="5354">  │ ├── isstream@0.1.2 </tspan>
<tspan x="10" y="5370">  │ ├── json-stringify-safe@5.0.1 </tspan>
<tspan x="10" y="5386">  │ ├── oauth-sign@0.8.2 </tspan>
<tspan x="10" y="5402">  │ ├── performance-now@0.2.0 </tspan>
<tspan x="10" y="5418">  │ ├── qs@6.4.0 </tspan>
<tspan x="10" y="5434">  │ ├── safe-buffer@5.0.1 </tspan>
<tspan x="10" y="5450">  │ ├── stringstream@0.0.5 </tspan>
<tspan x="10" y="5466">  │ ├─┬ tough-cookie@2.3.2 </tspan>
<tspan x="10" y="5482">  │ │ └── punycode@1.4.1 </tspan>
<tspan x="10" y="5498">  │ ├── tunnel-agent@0.6.0 </tspan>
<tspan x="10" y="5514">  │ └── uuid@3.0.1 </tspan>
<tspan x="10" y="5530">  ├─┬ retry-request@1.3.2 </tspan>
<tspan x="10" y="5546">  │ └─┬ request@2.76.0 </tspan>
<tspan x="10" y="5562">  │   ├── caseless@0.11.0 </tspan>
<tspan x="10" y="5578">  │   ├─┬ har-validator@2.0.6 </tspan>
<tspan x="10" y="5594">  │   │ ├─┬ chalk@1.1.3 </tspan>
<tspan x="10" y="5610">  │   │ │ ├── ansi-styles@2.2.1 </tspan>
<tspan x="10" y="5626">  │   │ │ ├── escape-string-regexp@1.0.5 </tspan>
<tspan x="10" y="5642">  │   │ │ ├── has-ansi@2.0.0 </tspan>
<tspan x="10" y="5658">  │   │ │ └── supports-color@2.0.0 </tspan>
<tspan x="10" y="5674">  │   │ ├─┬ commander@2.9.0 </tspan>
<tspan x="10" y="5690">  │   │ │ └── graceful-readlink@1.0.1 </tspan>
<tspan x="10" y="5706">  │   │ └─┬ is-my-json-valid@2.16.0 </tspan>
<tspan x="10" y="5722">  │   │   ├── generate-function@2.0.0 </tspan>
<tspan x="10" y="5738">  │   │   ├─┬ generate-object-property@1.2.0 </tspan>
<tspan x="10" y="5754">  │   │   │ └── is-property@1.0.2 </tspan>
<tspan x="10" y="5770">  │   │   └── jsonpointer@4.0.1 </tspan>
<tspan x="10" y="5786">  │   ├── node-uuid@1.4.8 </tspan>
<tspan x="10" y="5802">  │   ├── qs@6.3.2 </tspan>
<tspan x="10" y="5818">  │   └── tunnel-agent@0.4.3 </tspan>
<tspan x="10" y="5834">  ├── rgb-hex@1.0.0 </tspan>
<tspan x="10" y="5850">  ├─┬ split-array-stream@1.0.0 </tspan>
<tspan x="10" y="5866">  │ └── is-stream-ended@0.1.0 </tspan>
<tspan x="10" y="5882">  ├─┬ stream-events@1.0.1 </tspan>
<tspan x="10" y="5898">  │ └── stubs@1.1.2 </tspan>
<tspan x="10" y="5914">  ├── string-format-obj@1.1.0 </tspan>
<tspan x="10" y="5930">  └─┬ through2@2.0.3 </tspan>
<tspan x="10" y="5946">    └── xtend@4.0.1</tspan>
</text>
</svg>
